# xmcd CD database file
#
# Track frame offsets:
#	150
#	18811
#	38411
#	56831
#	74558
#	86897
#	101194
#	112535
#	126490
#	140249
#	152982
#	166608
#	179605
#	192224
#	206187
#	217660
#	231959
#	249143
#	267174
#	287046
#
# Disc length: 4092 seconds
#
# Revision: 0
# Processed by: cddbd v1.5.2PL0 Copyright (c) Steve Scherf et al.
# Submitted via: CDex 1.70beta2
#
DISCID=220ffa14
DTITLE=Various Artist - Jazz Roads CD188 - Swing - All-Star Groups Vol.3 (1939-44)
DYEAR=2006
DGENRE=Jazz
TTITLE0=Frank Newton Quintet - After Hour Blues
TTITLE1=Port Of Harlem Jazzmen - Blues For Tommy
TTITLE2=Port Of Harlem Jazzmen - Summertime
TTITLE3=Port Of Harlem Jazzmen - Pounding Heart Blues
TTITLE4=Leonard Feather’s All Star Jam Band - Twelve Bar Stampede
TTITLE5=Leonard Feather’s All Star Jam Band - Feather Bed Lament
TTITLE6=Leonard Feather’s All Star Jam Band - Men Of Harlem (Tempo Di Jump)
TTITLE7=Leonard Feather’s All Star Jam Band - Ocean Motion
TTITLE8=Louis Armstrong And His Orchestra - Perdido Street Blues
TTITLE9=Louis Armstrong And His Orchestra - 2.19 Blues
TTITLE10=Louis Armstrong And His Orchestra - Down In Honky Tonk Town
TTITLE11=Louis Armstrong And His Orchestra - Coal Cart Blues
TTITLE12=Red Allen And His Orchestra - Down In Jungle Town
TTITLE13=Red Allen And His Orchestra - Canal Street Blues
TTITLE14=Zutty Singleton And His Orchestra - King Porter Stomp
TTITLE15=Zutty Singleton And His Orchestra - Shim-Me-Sha-Wabble
TTITLE16=James P. Johnson’s Blue Note Jazzmen - Blue Mizz
TTITLE17=James P. Johnson’s Blue Note Jazzmen - Victory Stride
TTITLE18=James P. Johnson’s Blue Note Jazzmen - Joy-Mentin'
TTITLE19=James P. Johnson’s Blue Note Jazzmen - After You've Gone
EXTD=YEAR: 2006
EXTT0=
EXTT1=
EXTT2=
EXTT3=
EXTT4=
EXTT5=
EXTT6=
EXTT7=
EXTT8=
EXTT9=
EXTT10=
EXTT11=
EXTT12=
EXTT13=
EXTT14=
EXTT15=
EXTT16=
EXTT17=
EXTT18=
EXTT19=
PLAYORDER=
